<svg width="22" height="22" viewBox="0 0 22 22" fill="none" xmlns="http://www.w3.org/2000/svg">
<path d="M0.856384 21.3884C0.632195 21.1642 0.520101 20.8788 0.520101 20.5324C0.520101 20.1859 0.632195 19.9006 0.856384 19.6764L12.5346 7.99821C12.1677 7.14221 12.1168 6.17413 12.3817 5.09395C12.6467 4.01377 13.2275 3.04568 14.1243 2.18969C15.2044 1.10951 16.4069 0.477703 17.7317 0.294276C19.0564 0.110849 20.1366 0.436941 20.9722 1.27255C21.8078 2.10816 22.1339 3.18834 21.9505 4.51309C21.767 5.83784 21.1352 7.04031 20.0551 8.12049C19.1991 9.01724 18.231 9.59809 17.1508 9.86304C16.0706 10.128 15.1025 10.077 14.2465 9.71019L12.718 11.2387L21.1556 19.6764C21.3798 19.9006 21.4919 20.1859 21.4919 20.5324C21.4919 20.8788 21.3798 21.1642 21.1556 21.3884C20.9111 21.6329 20.6257 21.7552 20.2996 21.7552C19.9735 21.7552 19.6882 21.6329 19.4436 21.3884L11.006 13.0119L2.56837 21.3884C2.3238 21.6329 2.03847 21.7552 1.71238 21.7552C1.38628 21.7552 1.10095 21.6329 0.856384 21.3884ZM5.31977 11.789L1.65123 8.12049C0.734099 7.20335 0.1989 6.13336 0.0456368 4.91052C-0.106811 3.68767 0.122676 2.53616 0.734099 1.45598C0.937907 1.10951 1.24362 0.91589 1.65123 0.875128C2.05885 0.834367 2.41551 0.977032 2.72122 1.30312L9.23288 7.87592L5.31977 11.789Z" fill="#FD7E14"/>
</svg>
